<?xml version="1.0" standalone="no"?>
<!DOCTYPE svg PUBLIC "-//W3C//DTD SVG 20010904//EN"
 "http://www.w3.org/TR/2001/REC-SVG-20010904/DTD/svg10.dtd">
<svg version="1.0" xmlns="http://www.w3.org/2000/svg"
 width="700.000000pt" height="700.000000pt" viewBox="0 0 700.000000 700.000000"
 preserveAspectRatio="xMidYMid meet">
<metadata>
Created by potrace 1.11, written by Peter Selinger 2001-2013
</metadata>
<g transform="translate(0.000000,700.000000) scale(0.100000,-0.100000)"
fill="#000000" stroke="none">
<path d="M3278 6995 c-1 -1 -41 -5 -88 -9 -87 -7 -105 -9 -225 -27 -116 -18
-123 -19 -192 -35 -184 -42 -249 -59 -373 -101 -257 -85 -536 -216 -755 -354
-696 -437 -1220 -1109 -1475 -1889 -28 -87 -75 -256 -85 -311 -3 -13 -11 -58
-20 -99 -29 -147 -36 -200 -52 -370 -15 -165 -8 -592 12 -711 2 -13 6 -46 9
-74 21 -182 109 -546 165 -680 5 -11 30 -75 55 -142 54 -140 181 -394 249
-501 26 -40 47 -76 47 -81 0 -5 3 -11 8 -13 4 -2 33 -41 64 -88 172 -258 426
-528 721 -766 158 -127 426 -294 637 -396 228 -111 535 -218 753 -264 101 -21
216 -41 277 -49 25 -3 56 -7 70 -10 14 -3 70 -8 125 -11 l100 -6 57 118 c31
66 86 182 123 259 37 77 80 167 95 200 15 33 56 119 90 190 34 72 77 162 95
200 18 39 69 146 114 239 44 93 81 170 81 172 0 1 36 78 81 171 45 92 99 206
121 253 22 47 53 111 68 142 16 32 26 59 22 61 -4 2 -217 3 -474 2 -310 0
-468 3 -468 10 0 5 21 53 46 105 25 52 63 131 84 175 21 44 84 177 140 295 56
118 119 251 140 295 21 44 66 139 100 210 34 72 82 172 106 223 24 50 64 134
88 185 24 50 67 142 96 202 28 61 74 155 100 210 l48 100 -474 3 c-261 1 -474
4 -474 7 0 4 123 195 487 753 198 304 196 301 517 795 126 193 268 412 315
484 47 73 89 133 92 133 3 0 57 -79 120 -175 63 -97 155 -237 204 -313 50 -76
203 -311 340 -522 138 -211 363 -558 501 -770 l251 -385 -473 -3 c-261 -1
-474 -5 -474 -8 0 -6 80 -179 193 -414 35 -74 83 -175 107 -225 23 -49 66
-139 95 -200 29 -60 113 -238 188 -395 74 -157 163 -343 197 -415 70 -145 170
-357 170 -359 0 -1 -214 -1 -475 -1 -261 0 -475 -3 -475 -6 0 -4 28 -65 61
-135 34 -71 81 -169 104 -219 24 -49 68 -144 100 -210 31 -66 70 -147 85 -180
38 -81 166 -350 192 -403 l22 -42 24 22 c14 13 33 30 42 38 61 54 226 218 280
280 36 40 72 80 80 89 29 31 147 187 202 266 109 157 241 392 312 555 16 36
36 83 46 105 54 123 147 418 176 560 17 81 54 301 59 350 4 33 9 71 11 85 9
46 11 524 4 605 -12 128 -21 202 -25 227 -3 13 -8 43 -11 68 -9 67 -70 335
-94 412 -11 37 -21 70 -21 73 0 2 -16 48 -35 101 -224 619 -575 1124 -1074
1542 -66 56 -304 230 -351 257 -235 137 -500 275 -527 275 -4 0 -26 8 -48 19
-98 47 -408 141 -579 176 -44 9 -89 19 -100 21 -11 2 -38 6 -60 9 -22 3 -51 7
-65 10 -13 2 -52 7 -86 11 -33 3 -74 8 -90 10 -32 5 -540 14 -546 9z"/>
</g>
</svg>
